<mxfile host="drawio-plugin" modified="2021-05-09T16:38:02.654Z" agent="5.0 (Windows NT 6.2; Win64; x64) AppleWebKit/537.36 (KHTML, like Gecko) Chrome/87.0.4280.141 Safari/537.36" etag="BV_OWwTgeHYh7iQ6Fdh0" version="13.7.9" type="embed"><diagram id="r-OYRGq2VZSDw6rKtP9p" name="Page-1"><mxGraphModel dx="1050" dy="1483" grid="1" gridSize="10" guides="1" tooltips="1" connect="1" arrows="1" fold="1" page="1" pageScale="1" pageWidth="850" pageHeight="1100" background="#ffffff" math="0" shadow="0"><root><mxCell id="0"/><mxCell id="1" parent="0"/><mxCell id="15" value="HardService" style="swimlane;fontStyle=1;align=center;verticalAlign=top;childLayout=stackLayout;horizontal=1;startSize=26;horizontalStack=0;resizeParent=1;resizeParentMax=0;resizeLast=0;collapsible=1;marginBottom=0;fontColor=#000000;strokeColor=#0000CC;strokeWidth=2;fillColor=#FFFFFF;" parent="1" vertex="1"><mxGeometry x="320" y="-90" width="160" height="164" as="geometry"/></mxCell><mxCell id="18" value="- __service1: Service1" style="text;align=left;verticalAlign=top;spacingLeft=4;spacingRight=4;overflow=hidden;rotatable=0;points=[[0,0.5],[1,0.5]];portConstraint=eastwest;fontColor=#000000;strokeColor=#0000CC;strokeWidth=2;fillColor=#FFFFFF;" parent="15" vertex="1"><mxGeometry y="26" width="160" height="26" as="geometry"/></mxCell><mxCell id="19" value="- __service2: Service2" style="text;align=left;verticalAlign=top;spacingLeft=4;spacingRight=4;overflow=hidden;rotatable=0;points=[[0,0.5],[1,0.5]];portConstraint=eastwest;fontColor=#000000;strokeColor=#0000CC;strokeWidth=2;fillColor=#FFFFFF;" parent="15" vertex="1"><mxGeometry y="52" width="160" height="26" as="geometry"/></mxCell><mxCell id="20" value="- __service3: Service3" style="text;align=left;verticalAlign=top;spacingLeft=4;spacingRight=4;overflow=hidden;rotatable=0;points=[[0,0.5],[1,0.5]];portConstraint=eastwest;fontColor=#000000;strokeColor=#0000CC;strokeWidth=2;fillColor=#FFFFFF;" parent="15" vertex="1"><mxGeometry y="78" width="160" height="26" as="geometry"/></mxCell><mxCell id="21" value="- __service4: Service4" style="text;align=left;verticalAlign=top;spacingLeft=4;spacingRight=4;overflow=hidden;rotatable=0;points=[[0,0.5],[1,0.5]];portConstraint=eastwest;fontColor=#000000;strokeColor=#0000CC;strokeWidth=2;fillColor=#FFFFFF;" parent="15" vertex="1"><mxGeometry y="104" width="160" height="26" as="geometry"/></mxCell><mxCell id="16" value="" style="line;strokeWidth=2;align=left;verticalAlign=middle;spacingTop=-1;spacingLeft=3;spacingRight=3;rotatable=0;labelPosition=right;points=[];portConstraint=eastwest;fontColor=#000000;strokeColor=#0000CC;fillColor=#FFFFFF;" parent="15" vertex="1"><mxGeometry y="130" width="160" height="8" as="geometry"/></mxCell><mxCell id="17" value="+ execute()" style="text;align=left;verticalAlign=top;spacingLeft=4;spacingRight=4;overflow=hidden;rotatable=0;points=[[0,0.5],[1,0.5]];portConstraint=eastwest;fontColor=#000000;strokeColor=#0000CC;strokeWidth=2;fillColor=#FFFFFF;" parent="15" vertex="1"><mxGeometry y="138" width="160" height="26" as="geometry"/></mxCell><mxCell id="23" value="1" style="endArrow=open;html=1;endSize=12;startArrow=diamondThin;startSize=14;startFill=1;edgeStyle=orthogonalEdgeStyle;align=left;verticalAlign=bottom;strokeColor=#0000CC;entryX=0;entryY=0.25;entryDx=0;entryDy=0;exitX=0;exitY=0.25;exitDx=0;exitDy=0;strokeWidth=2;fontSize=17;labelBackgroundColor=none;fontColor=#000000;" parent="1" source="15" target="8" edge="1"><mxGeometry x="-0.893" y="-11" relative="1" as="geometry"><mxPoint x="240" y="-60" as="sourcePoint"/><mxPoint x="40" y="190" as="targetPoint"/><Array as="points"><mxPoint x="30" y="-49"/><mxPoint x="30" y="5"/></Array><mxPoint as="offset"/></mxGeometry></mxCell><mxCell id="24" value="1" style="endArrow=open;html=1;endSize=12;startArrow=diamondThin;startSize=14;startFill=1;edgeStyle=orthogonalEdgeStyle;align=left;verticalAlign=bottom;strokeColor=#0000CC;strokeWidth=2;exitX=0;exitY=0.5;exitDx=0;exitDy=0;entryX=0;entryY=0.25;entryDx=0;entryDy=0;fontSize=17;labelBackgroundColor=none;fontColor=#000000;" parent="1" source="19" target="2" edge="1"><mxGeometry y="70" relative="1" as="geometry"><mxPoint x="260" y="-30" as="sourcePoint"/><mxPoint x="300" y="190" as="targetPoint"/><Array as="points"><mxPoint x="230" y="-25"/></Array><mxPoint as="offset"/></mxGeometry></mxCell><mxCell id="25" value="1" style="endArrow=open;html=1;endSize=12;startArrow=diamondThin;startSize=14;startFill=1;edgeStyle=orthogonalEdgeStyle;align=left;verticalAlign=bottom;strokeColor=#0000CC;strokeWidth=2;entryX=0;entryY=0.25;entryDx=0;entryDy=0;fontSize=17;labelBackgroundColor=none;fontColor=#000000;" parent="1" target="11" edge="1"><mxGeometry x="-1" y="3" relative="1" as="geometry"><mxPoint x="480" as="sourcePoint"/><mxPoint x="470" y="230" as="targetPoint"/><Array as="points"><mxPoint x="510"/><mxPoint x="510" y="-60"/><mxPoint x="590" y="-60"/></Array></mxGeometry></mxCell><mxCell id="11" value="Service3" style="swimlane;fontStyle=1;align=center;verticalAlign=top;childLayout=stackLayout;horizontal=1;startSize=26;horizontalStack=0;resizeParent=1;resizeParentMax=0;resizeLast=0;collapsible=1;marginBottom=0;fontColor=#000000;strokeColor=#0000CC;strokeWidth=2;fillColor=#FFFFFF;" parent="1" vertex="1"><mxGeometry x="610" y="-110" width="160" height="60" as="geometry"/></mxCell><mxCell id="12" value="" style="line;strokeWidth=2;align=left;verticalAlign=middle;spacingTop=-1;spacingLeft=3;spacingRight=3;rotatable=0;labelPosition=right;points=[];portConstraint=eastwest;fontColor=#000000;strokeColor=#0000CC;fillColor=#FFFFFF;" parent="11" vertex="1"><mxGeometry y="26" width="160" height="8" as="geometry"/></mxCell><mxCell id="13" value="+ execute()" style="text;align=left;verticalAlign=top;spacingLeft=4;spacingRight=4;overflow=hidden;rotatable=0;points=[[0,0.5],[1,0.5]];portConstraint=eastwest;fontColor=#000000;strokeColor=#0000CC;strokeWidth=2;fillColor=#FFFFFF;" parent="11" vertex="1"><mxGeometry y="34" width="160" height="26" as="geometry"/></mxCell><mxCell id="26" value="1" style="endArrow=open;html=1;endSize=12;startArrow=diamondThin;startSize=14;startFill=1;edgeStyle=orthogonalEdgeStyle;align=left;verticalAlign=bottom;strokeColor=#0000CC;strokeWidth=2;exitX=1;exitY=0.75;exitDx=0;exitDy=0;entryX=0;entryY=0.25;entryDx=0;entryDy=0;fontSize=17;labelBackgroundColor=none;fontColor=#000000;" parent="1" source="15" target="5" edge="1"><mxGeometry x="-1" y="3" relative="1" as="geometry"><mxPoint x="460" y="130" as="sourcePoint"/><mxPoint x="620" y="130" as="targetPoint"/></mxGeometry></mxCell><mxCell id="5" value="Service4" style="swimlane;fontStyle=1;align=center;verticalAlign=top;childLayout=stackLayout;horizontal=1;startSize=26;horizontalStack=0;resizeParent=1;resizeParentMax=0;resizeLast=0;collapsible=1;marginBottom=0;fontColor=#000000;strokeColor=#0000CC;strokeWidth=2;fillColor=#FFFFFF;" parent="1" vertex="1"><mxGeometry x="630" y="74" width="160" height="60" as="geometry"/></mxCell><mxCell id="6" value="" style="line;strokeWidth=2;align=left;verticalAlign=middle;spacingTop=-1;spacingLeft=3;spacingRight=3;rotatable=0;labelPosition=right;points=[];portConstraint=eastwest;fontColor=#000000;strokeColor=#0000CC;fillColor=#FFFFFF;" parent="5" vertex="1"><mxGeometry y="26" width="160" height="8" as="geometry"/></mxCell><mxCell id="7" value="+ execute()" style="text;align=left;verticalAlign=top;spacingLeft=4;spacingRight=4;overflow=hidden;rotatable=0;points=[[0,0.5],[1,0.5]];portConstraint=eastwest;fontColor=#000000;strokeColor=#0000CC;strokeWidth=2;fillColor=#FFFFFF;" parent="5" vertex="1"><mxGeometry y="34" width="160" height="26" as="geometry"/></mxCell><mxCell id="8" value="Service1" style="swimlane;fontStyle=1;align=center;verticalAlign=top;childLayout=stackLayout;horizontal=1;startSize=26;horizontalStack=0;resizeParent=1;resizeParentMax=0;resizeLast=0;collapsible=1;marginBottom=0;fontColor=#000000;strokeColor=#0000CC;strokeWidth=2;fillColor=#FFFFFF;" parent="1" vertex="1"><mxGeometry x="60" y="-10" width="160" height="60" as="geometry"/></mxCell><mxCell id="9" value="" style="line;strokeWidth=2;align=left;verticalAlign=middle;spacingTop=-1;spacingLeft=3;spacingRight=3;rotatable=0;labelPosition=right;points=[];portConstraint=eastwest;fontColor=#000000;strokeColor=#0000CC;fillColor=#FFFFFF;" parent="8" vertex="1"><mxGeometry y="26" width="160" height="8" as="geometry"/></mxCell><mxCell id="10" value="+ execute()" style="text;align=left;verticalAlign=top;spacingLeft=4;spacingRight=4;overflow=hidden;rotatable=0;points=[[0,0.5],[1,0.5]];portConstraint=eastwest;fontColor=#000000;strokeColor=#0000CC;strokeWidth=2;fillColor=#FFFFFF;" parent="8" vertex="1"><mxGeometry y="34" width="160" height="26" as="geometry"/></mxCell><mxCell id="2" value="Service2" style="swimlane;fontStyle=1;align=center;verticalAlign=top;childLayout=stackLayout;horizontal=1;startSize=26;horizontalStack=0;resizeParent=1;resizeParentMax=0;resizeLast=0;collapsible=1;marginBottom=0;fontColor=#000000;strokeColor=#0000CC;strokeWidth=2;fillColor=#FFFFFF;" parent="1" vertex="1"><mxGeometry x="250" y="100" width="160" height="60" as="geometry"/></mxCell><mxCell id="3" value="" style="line;strokeWidth=2;align=left;verticalAlign=middle;spacingTop=-1;spacingLeft=3;spacingRight=3;rotatable=0;labelPosition=right;points=[];portConstraint=eastwest;fontColor=#000000;strokeColor=#0000CC;fillColor=#FFFFFF;" parent="2" vertex="1"><mxGeometry y="26" width="160" height="8" as="geometry"/></mxCell><mxCell id="4" value="+ execute()" style="text;align=left;verticalAlign=top;spacingLeft=4;spacingRight=4;overflow=hidden;rotatable=0;points=[[0,0.5],[1,0.5]];portConstraint=eastwest;fontColor=#000000;strokeColor=#0000CC;strokeWidth=2;fillColor=#FFFFFF;" parent="2" vertex="1"><mxGeometry y="34" width="160" height="26" as="geometry"/></mxCell><mxCell id="27" value="&lt;font style=&quot;font-size: 17px&quot;&gt;1&lt;/font&gt;" style="text;html=1;align=center;verticalAlign=middle;resizable=0;points=[];autosize=1;fontSize=11;fontColor=#000000;" vertex="1" parent="1"><mxGeometry x="230" y="80" width="20" height="20" as="geometry"/></mxCell><mxCell id="28" value="&lt;font style=&quot;font-size: 17px&quot;&gt;1&lt;/font&gt;" style="text;html=1;align=center;verticalAlign=middle;resizable=0;points=[];autosize=1;fontSize=11;fontColor=#000000;" vertex="1" parent="1"><mxGeometry x="40" y="-30" width="20" height="20" as="geometry"/></mxCell><mxCell id="29" value="&lt;font style=&quot;font-size: 17px&quot;&gt;1&lt;/font&gt;" style="text;html=1;align=center;verticalAlign=middle;resizable=0;points=[];autosize=1;fontSize=11;fontColor=#000000;" vertex="1" parent="1"><mxGeometry x="610" y="60" width="20" height="20" as="geometry"/></mxCell><mxCell id="30" value="&lt;font style=&quot;font-size: 17px&quot;&gt;1&lt;/font&gt;" style="text;html=1;align=center;verticalAlign=middle;resizable=0;points=[];autosize=1;fontSize=11;fontColor=#000000;" vertex="1" parent="1"><mxGeometry x="590" y="-120" width="20" height="20" as="geometry"/></mxCell></root></mxGraphModel></diagram></mxfile>